<?xml version="1.0" encoding="UTF-8"?>
<svg version="1.1" viewBox="0 0 2000 2000" width="200" height="200" xmlns="http://www.w3.org/2000/svg">
<path transform="translate(0)" d="m0 0h2e3v2e3h-2e3z" fill="#FEFDFD"/>
<path transform="translate(596,766)" d="m0 0h36l36 2 36 4 25 5 21 6 18 8 11 8 4 5 1 7-3 3-5-1-7-10-10-7-13-6-15-5-24-6-21-3-25-2h-57l-23 1-10 2 1 31 3 17 6 15 7 12 12 14 11 10 15 11 15 9 27 14 13 6 9 4 3-3 6-1 3 1-1 5-7 17-14 30-14 34-6 18-1 7 7-2 8-7 14-29 32-69 4-5h6l1 3-10 24-11 24-15 31-1 4 16-10 10-2 5 3 2 3v11l-2 9v6l8-1 16-8h3l-1 5-9 6-15 6-10 1-3-3-1-5 3-25-6 4-9 7-14 14-9 12-4 4h-6l-1-5-5 1h-8l-5-4-1-9 3-10-8 7-7 8-8 7-10 5-4 1h-7l-5-4-1-2v-12l-32 16-4 5-14 35-8 16-7 11-9 10-11 8-11 3-7 1h-13l-14-3-10-5-5-5-3-6-5 4-10 3-6 1h-30l-22-3-19-4-21-7-9-6-4-5-1-2v-8l6-8 8-7 12-6 16-4h16l12 3 8 5-1 4-10-3-11-3h-9l-13 3-11 6-8 7-3 6 2 6 8 6 15 5 26 5 23 3h18l10-3 3-1v-7l-5-9-9-10-7-8-8-8-8-7-14-14-8-7-14-12-16-15-8-7-30-28-17-17-14-19-6-11-4-10-2-9v-17l4-13 7-12 8-10 11-11 13-10 13-8 18-10 26-11 36-12 36-9 36-7 35-5 42-4z" fill="#FEFDFD"/>
<path transform="translate(714,998)" d="m0 0h2v10l-2 17 1 5h8l12-4 14-7h3l4 4 2 4 13 8 10 6 12 8 11 9 10 9 7 7 9 12 4 4 4-1 2-1-1 6-9 16-9 20-10 28-7 26-1 5v14l4 4v2h8l-2 4-7 6-18 12-14 6-18 6-16 3-9 1h-24l-21-3-25-6-19-7-23-11-16-11-10-8-12-11-14-15-10-13-11-16-9-15-7-11-5-2 2-4 9-10 11-19 8-19 8-21 4-6 8-5 26-13 1 2v11l5 5h7l9-3 11-8 7-7 7-8 3-1-2 10 1 9 4 3h8l5-1 1 5h6l7-8 8-10 15-15z" fill="#FEFDFD"/>
<path transform="translate(1485,909)" d="m0 0h2l1 5-5 16-5 14h27l2 1-1 3-30 2h-2l-2 6-16 38-7 19-3 12v6l3 3h7l13-5 9-6 8-14 17-36 15-33 9-19 4-5h6l-1 7-10 25-14 29-10 21v3l15-9 6-2 7 1 3 3 1 2v11l-2 16 8-2 8-7 9-9 11-7 10-4h8l5 6-1 4-4 1-5-3-9 3-11 10-8 12 1 3 7-4 14-12 10-5h2l1 2v8l-1 10h6l8-4 7-6 5-5h3v5l-9 10-8 5-12 3-7-2-3-4-1-5-10 8-10 4h-11l-5-5v-5l-8 3h-8l-3-3v-12l2-15 1-3-8 4-12 11-10 10-10 13-3 3h-6v-5l-12 6-8 2h-10l-8-4-3-4-1-9-16 6h-7l-3-3-1-6 3-22v-2l-11 7-18 18-10 13-5 4-4-1-1-4 4-10 4-7-14 7 1 9 1 4v9l-5 5-8 4-9 2h-6l3 7 6 12 16 40 15 37 11 24 8 16 11 20 10 13 7 6 12 6 3 1 16 1 1 1v6l-3 3-13 3-21 2h-20l-13-2-17-6-11-7-8-7-10-13-11-19-13-27-8-19-20-49-13-33-14-33-5-10h-2l-8 8-5-1 1-6 3-5-12 4h-7l-3-3-1-5 3-25-11 7-18 18-9 12-5 5-5-1-1-5 7-14-1-1-12 6 1 9 1 3v10l-4 5-9 4-17 3h-8l-5-3-3-3v-6l4-6 3-3-9 3h-7l-5-3-3-6-1-7-7 6-14 7-7 1-7-5-2-9-7 6-13 10-5 2h-10l-4-4v-9l5-16 8-17 2-2 6 1-1 9-10 27v2l6-1 16-15 12-13 4-5 3-2h5l2 2-1 8-5 18v5l17-9 8-6 14-36 13-30 12-29 4-8 7-1 1 1-1 8-12 29-12 30-10 26-5 17 1 9 4 1 11-4 15-10-1-9-1-4v-7l4-7 6-3h12l5 4 1 6-4 1-7-5-6 1-1 6 3 12 2 5 20-7 5-5 17-36 18-39 7-14 2-2h5l1 5-8 20-11 24-13 27-4 10 16-10 9-2 6 3 2 4v10l-2 16 13-4 6-8 9-15 3-3h3l2 5h8l10-2 7 1 2 3-1 7-5 7-1 4h2l2-6 7-7 10-5 9-2h8l5 3 1 7-4 6-8 5-3 1h-17l-1 8 4 4 3 1h8l11-3 10-6 6-5h2l-3-14v-7l4-6 6-3h11l5 3 2 6-4 2-7-5-6 1-1 7 3 10 2 5 7-1 16-6 13-27 13-29 7-14 9-20 4-5h6l-1 8-11 26-19 40-4 8-1 4 16-10 10-2 5 2 2 3v13l-2 15 13-4 5-5 19-47 6-17h-22l-2-4 1-1 27-2 14-29z" fill="#FEE0DE"/>
<path transform="translate(596,766)" d="m0 0h36l36 2 36 4 25 5 21 6 18 8 11 8 4 5 1 7-3 3-5-1-7-10-10-7-13-6-15-5-24-6-21-3-25-2h-57l-39 2-45 4-42 6-26 5-30 7-30 9-19 7-18 8-21 11-12 8-11 9-9 9-9 12-5 10-3 10v14l4 15 8 15 12 16 8 8 7 8 29 27 11 9 7 7 8 7 12 11 8 7 15 14 17 16 12 12 10 14 4 7 2 1 2-5 8-7 15-10 32-19 26-14 10-6 3-1 1-6-12 4h-10l-4-6-11 7-10 3h-9l-5-5-1-4-10 5-6 2h-9l-3-5 1-10 2-6v-4l-15 10-10 9-10 7h-5l-1-5 10-19 7-11 5-3 3 5-2 8 10-6 11-4h7l4 4-2 10-3 7v4l8-2 9-4 8-13 4-6 5-1 3 3-9 22-1 4 11-3 11-5 7-16 9-10 9-5 5-1 26-1 1 1-1 8-10 23-1 6 12-5 18-8h2l2-4 6-7 11-7 12-3h14l8-13 15-27 13-24 8-13 6-1 3 1-1 5-7 17-14 30-14 34-6 18-1 7 7-2 8-7 14-29 32-69 4-5h6l1 3-10 24-11 24-15 31-1 4 16-10 10-2 5 3 2 3v11l-2 9v6l8-1 16-8h3l-1 5-9 6-15 6-10 1-3-3-1-5 3-25-6 4-9 7-14 14-9 12-4 4h-6l-1-5-5 1h-8l-5-4-1-9 3-10-8 7-7 8-8 7-10 5-4 1h-7l-5-4-1-2v-12l-32 16-4 5-14 35-8 16-7 11-9 10-11 8-11 3-7 1h-13l-14-3-10-5-5-5-3-6-5 4-10 3-6 1h-30l-22-3-19-4-21-7-9-6-4-5-1-2v-8l6-8 8-7 12-6 16-4h16l12 3 8 5-1 4-10-3-11-3h-9l-13 3-11 6-8 7-3 6 2 6 8 6 15 5 26 5 23 3h18l10-3 3-1v-7l-5-9-9-10-7-8-8-8-8-7-14-14-8-7-14-12-16-15-8-7-30-28-17-17-14-19-6-11-4-10-2-9v-17l4-13 7-12 8-10 11-11 13-10 13-8 18-10 26-11 36-12 36-9 36-7 35-5 42-4z" fill="#060507"/>
<path transform="translate(997,780)" d="m0 0h13l9 3 6 5 4 10v12l-4 18-7 19-13 30-17 35-27 54v2l10-6 19-14 45-30 25-16 25-15 21-12 26-14 17-9 28-13 25-11 26-10 28-10 35-10 27-6 31-5 35-3h26l26 2 30 5 14 4v4l-10-1-22-4-31-3h-28l-26 2-29 4-29 6-29 8-36 12-26 10-23 10-24 11-40 20-46 26-23 14-17 11-30 20-16 11-18 13-16 12-10 8-3 4h31l12 2 8 5 4 6 1 3v9l-5 25-5 22v18l4 10 6 9 10 6 11 1 11-3 10-7 7-10 4-6 5-1 1 5-5 10-8 9-10 6-11 3h-15l-13-4-9-6-7-11-3-9v-24l9-41v-11l-5-7-5-2h-27l-11 1-10 17-6 12-12 22-16 28-15 26-14 23-15 24-11 17-9 14-14 19-7 5h-7l-5-5v-14l6-24 10-30 10-23 9-17 14-21 10-13 10-11 7-8 22-22 8-7 11-10 8-7 7-7 12-23 29-56 17-35 11-25 9-23 4-17v-12l-3-6-4-3-4-1h-10l-21 5-21 8-30 13-36 18-22 12-29 17-30 20-19 14-11 9-12 11-7 9-2 7 8 3h43l44-3h12l-1 3-19 3-35 3-21 1h-16l-15-2-7-3-4-4-1-5 6-12 14-14 17-13 19-13 19-12 24-14 25-14 34-18 23-12 29-13 24-8z" fill="#060507"/>
<path transform="translate(968,685)" d="m0 0h128l1 2-4 8-12 9-8 11-5 13-2 11-2 30-1 129 2 2-24 15-45 30-17 12-14 10-5 2 1-5 38-76 14-31 9-23 4-13 2-11v-12l-4-10-5-4-9-3-13-1 2-1-2-7-2-23-4-25-4-11-8-10-9-6-4-2-3-9z" fill="#FEE0DE"/>
<path transform="translate(565,775)" d="m0 0h12v1l-6 1 1 31 3 17 6 15 7 12 12 14 11 10 15 11 15 9 27 14 13 6 9 4v3l-15 28-13 23-5 9-1-3h-10l-29-14-17-9-21-13-14-11-10-9v-2h-2l-11-14-10-17-6-17-4-18-1-9v-26l3-20 5-19v-3-1z" fill="#FEE0DE"/>
<path transform="translate(1058,913)" d="m0 0 5 2 1 51v24l7-6 13-13h2l2-4 17-17 7-8 14-14 3-2h4l2 2 2-2-1 5-15 35-12 29-8 21-9 7-15 8h-2l-1-5 6-21v-5l-1-1h-5l-5 4-7 8-9 10-7 7-9 7-5-1 3-11 7-18 2-9h-6l-8 16-5 14-1 4v9l3 3h10l8-4 13-11 4-3 1 1 2 9 1 2h-3l1 19v11l-1 17-6 1-7 11-6 7-10 6-9 2-11-1-10-6-6-8-4-9-1-3v-18l8-35 2-12v-9l-4-8-8-5-12-2-31-1 2-4 8-7 20-15 17-12 16-11 30-20z" fill="#FEE0DE"/>
<path transform="translate(894,1087)" d="m0 0 1 3 3 14-4 26-5 17-8 18-6 11-9 13-8 10h-2l-2 4-12 11-13 9h-2v2l-18 10-10 5-14 6-16 5-10 3-31 5-12 1h-18l-26-2-32-5-22-5-19-5-27-9-19-8-19-10-15-9-5-5-2-34-1-35 2-7 2-1-2-2 12-6 5 2 7 10 8 14 8 12 12 16 10 11 7 8 7 7 14 11 18 12 23 11 24 8 23 5 16 2h24l20-3 17-5 18-7 11-7 12-8 6-7h-8v-1l9-2 5-4 13-18 16-25 14-22 17-28z" fill="#FEE0DE"/>
<path transform="translate(724,934)" d="m0 0 1 2 7 1 13 5 25 11 19 9 22 12 14 8 12 8 12 9 10 9 10 10 9 11 3 6v2l2 1-10 10-9 11-7 8-12 17-4 6h-3l-4 1-5-5-11-14-11-11-14-11-12-8-20-12-5-4v-3l-4-2v-2l-2-1 2-5-22 10h-5l-1-1 1-10 1-5v-11l-3-4-6-1-9 3-12 8h-2l1-6 19-39z" fill="#FEE0DE"/>
<path transform="translate(1059,1094)" d="m0 0 1 2h2l1 2 1 76 2 25 4 17 4 9 6 8 9 7 4 2 2 4v4l-2 1-29 1h-73l-24-1-3-3 3-6 9-6 5-5 6-10 5-16 3-19 1-17 1-60 9 3 8 2h15l13-4 9-6z" fill="#FEE0DE"/>
<path transform="translate(1485,909)" d="m0 0h2l1 5-5 16-5 14h27l2 1-1 3-30 2h-2l-2 6-16 38-7 19-3 12v6l3 3h7l13-5 9-6 8-14 17-36 15-33 9-19 4-5h6l-1 7-10 25-14 29-10 21v3l15-9 6-2 7 1 3 3 1 2v11l-2 16 8-2 8-7 9-9 11-7 10-4h8l5 6-1 4-4 1-5-3-9 3-11 10-8 12 1 3 7-4 14-12 10-5h2l1 2v8l-1 10h6l8-4 7-6 5-5h3v5l-9 10-8 5-12 3-7-2-3-4-1-5-10 8-10 4h-11l-5-5v-5l-8 3h-8l-3-3v-12l2-15 1-3-8 4-12 11-10 10-10 13-3 3h-6v-5l-12 6-8 2h-10l-8-4-3-4-1-9-16 6h-7l-3-3-1-6 3-22v-2l-11 7-18 18-10 13-5 4-4-1-1-4 4-10 4-7-14 7 1 9 1 4v9l-5 5-8 4-15 3h-10l-6-4-2-3 1-7 9-8-14 3-13-1-8-4-4-6 1-11 5-8 8-7 10-4 6-1h8l5 3 1 7-4 6-8 5-3 1h-17l-1 8 4 4 3 1h8l11-3 10-6 6-5h2l-3-14v-7l4-6 6-3h11l5 3 2 6-4 2-7-5-6 1-1 7 3 10 2 5 7-1 16-6 13-27 13-29 7-14 9-20 4-5h6l-1 8-11 26-19 40-4 8-1 4 16-10 10-2 5 2 2 3v13l-2 15 13-4 5-5 19-47 6-17h-22l-2-4 1-1 27-2 14-29z" fill="#060507"/>
<path transform="translate(695,680)" d="m0 0h51l28 3 22 4 30 8 22 8 20 9 8 5 1 12 2 54v30l-6-1-5-8-10-18-11-17-11-14-19-19-15-11-13-8-16-8-15-6-21-6-15-3-10-1h-38l-17 3-17 5-10 4-18 11-13 12-8 9-12 20-6 9h23v1l-38 2-13 1h-11v-1l9-1-4-4 1-6 13-16 7-8 7-7 17-13 15-9 17-8 21-7 21-5 17-3z" fill="#FEE0DE"/>
<path transform="translate(1145,912)" d="m0 0h5l1 1-1 8-12 29-12 30-10 26-5 17 1 9 4 1 11-4 15-10-1-9-1-4v-7l4-7 6-3h12l5 4 1 6-4 1-7-5-6 1-1 6 3 12 2 5 20-7 5-5 17-36 18-39 7-14 2-2h5l1 5-8 20-11 24-13 27-4 10 16-10 9-2 6 3 2 4v10l-2 16 13-4 6-8 9-15 3-3h3l2 5h8l10-2 7 1 2 3-1 7-4 5-3 1-2-2-1-8-5 1-11 7-8 8-13 17-3 3-5-1 1-6 3-5-12 4h-7l-3-3-1-5 3-25-11 7-18 18-9 12-5 5-5-1-1-5 7-14-1-1-12 6 1 9 1 3v10l-4 5-9 4-17 3h-8l-5-3-3-3v-6l4-6 3-3-9 3h-7l-5-3-3-6-1-7-7 6-14 7-7 1-7-5-2-9-7 6-13 10-5 2h-10l-4-4v-9l5-16 8-17 2-2 6 1-1 9-10 27v2l6-1 16-15 12-13 4-5 3-2h5l2 2-1 8-5 18v5l17-9 8-6 14-36 13-30 12-29 4-8z" fill="#060507"/>
<path transform="translate(1155,933)" d="m0 0h22l23 1 8 2 3 4-1 5-16 34-14 30-5 4-16 6h-4l-4-8-2-12 2-4 6-1 7 5h3l-1-6-4-3h-12l-6 3-3 6v7l2 7v6l-13 9-8 4-9 2-3-5 1-10 9-27 11-27 12-29z" fill="#FEFCFC"/>
<path transform="translate(1358,684)" d="m0 0h17l37 1 4 2-2 6-4 3-21 8-18 8-16 9-12 8-14 11-13 12-32 32-6 7-9 7-4 4-1 2 2 2-18 6-4-1 5-2 2-7 24-24 5-6h2l2-5 9-10 10-13 10-15 5-10 2-6v-10l-5-5-13-9-1-3 2-1z" fill="#FEE0DE"/>
<path transform="translate(1223,936)" d="m0 0 2 2 9 1 19 9 12 8 10 9 12 12 11 16 1 7-5 2h-5l-1 2-2-6-7-1-10 2h-8l-2-6-5 3-12 20-4 4-8 3h-5v-10l1-6v-10l-2-4-5-2-9 2-14 9h-2l1-6 8-16 16-34z" fill="#FEE0DE"/>
<path transform="translate(918,1015)" d="m0 0 1 4-18 34-14 24-16 28-14 23-24 38-10 15-4 5h-2v-8l7-26 9-25 9-20 10-19 12-18 10-13 9-10 7-8 14-13 10-8z" fill="#FEE0DE"/>
<path transform="translate(546,1048)" d="m0 0h4l-1 9-8 20-10 19-8 11h-2l-2 4-11 7-8 2h-9l-14-3-9-6-3-5 1-6 9-10 10-7 21-13 21-12z" fill="#FEFCFB"/>
<path transform="translate(700,922)" d="m0 0 4 4 9 4 2 4-19 41-11 23-10 21-9 8-7 1v-7l7-21 18-42 14-30z" fill="#FEE0DE"/>
<path transform="translate(1128,943)" d="m0 0 1 4-13 31-10 25-5 13-9 7-15 8h-2l-1-5 6-21v-5l-1-4h-2l2-4 16-15 11-11 7-8 10-11z" fill="#FEFCFB"/>
<path transform="translate(1237,823)" d="m0 0 3 1h-2v2h2l-2 4-7 8-15 15-6 7-50 50-7 5-2 2-1-4h-7l1-2 5-1 1-6 15-14 12-13 12-12 5-6 6-5 7-8 6-6h2l2-4 1-3 3-3 3-2z" fill="#FEE0DE"/>
<path transform="translate(1155,933)" d="m0 0h22l23 1 8 2 3 4-1 5-8 17-3-2-21-7-22-4-10-1-3-3v-2h-2l2-7z" fill="#FEE0DE"/>
<path transform="translate(994,956)" d="m0 0h2l1 2v35l-1 3-9-1-8-1-31-1 2-4 8-7 20-15z" fill="#FEFBFB"/>
<path transform="translate(995,896)" d="m0 0h2l-1 5 1 7v27l1 5 1-2 4 1-4 4-20 14-14 10-5 2 1-5 8-16z" fill="#FEFAFA"/>
<path transform="translate(995,787)" d="m0 0h10l7 3 4 5 1 3v12l-4 17-9 23-2-2-2 2-3-6v-55h-8v-1z" fill="#FEE0DE"/>
<path transform="translate(841,1112)" d="m0 0 1 3 2 9 1 10 1 3 4-2-1 6-15 23-10 16-5 6h-2v-8l7-26 9-25 6-14z" fill="#FEF9F9"/>
<path transform="translate(672,989)" d="m0 0 5 2h8l2-2-1 7-11 23-9 8-7 1v-7l7-21 4-9h2z" fill="#FEFAF9"/>
<path transform="translate(632 1e3)" d="m0 0h8l3 2-1 4-9 11-11 12-7 5-4-1v-10l3-7 6-9 9-6z" fill="#FEFAF9"/>
<path transform="translate(918,1015)" d="m0 0 1 4-18 34-6 10h-2l-6-15-1-3 11-11 7-8 10-8z" fill="#FEFAFA"/>
<path transform="translate(558,997)" d="m0 0h6l3 3v6l-6 10-10 9-5 3h-5l-2-2 2-10 5-10 8-7z" fill="#FEFAF9"/>
<path transform="translate(1210,969)" d="m0 0 3 1 4 9 4 5 2 6-10 2-8 4-9 6h-2l1-6 8-16 4-9z" fill="#FEFBFB"/>
<path transform="translate(1580 1e3)" d="m0 0 5 2 4 3h-2l1 5-1-2-12 6-15 13-7 3-1-4 9-13 7-7 6-4z" fill="#FEF7F7"/>
<path transform="translate(1340,1032)" d="m0 0 4 2 1 11-3 3-9 3h-12l-1-4 5-5 14-9z" fill="#FEF7F7"/>
<path transform="translate(1146,1033)" d="m0 0 5 1 1 4v7l-3 3-10 3h-12l1-6 15-10z" fill="#FEF8F7"/>
<path transform="translate(1227,996)" d="m0 0 2 1 4 9 3 3 7 2-1 5-4 4-8 3h-5v-10z" fill="#FEF9F9"/>
<path transform="translate(1301,1022)" d="m0 0h10v2h2l1 6 2 2-9 2h-8l-6-3-2-3v-5l2 3 7-3z" fill="#FEE0DE"/>
<path transform="translate(522,975)" d="m0 0h5l1 5-5 9-4 3-6-1 7-14z" fill="#060507"/>
<path transform="translate(1310 1e3)" d="m0 0 5 1-1 5-5 4-7 1-3-1 1-5z" fill="#FEF5F5"/>
<path transform="translate(513,1089)" d="m0 0 4 1 2 4v8l-3 3-1 3-4-2v-12z" fill="#FEE0DE"/>
<path transform="translate(725,1012)" d="m0 0h3v2l11 3v2l-9 4h-5l-1-1z" fill="#FEF7F7"/>
<path transform="translate(699,988)" d="m0 0 3 1 2 3 2 2-4 4-6 4h-2l1-6z" fill="#FEF4F3"/>
<path transform="translate(1296 1e3)" d="m0 0h6l-12 8-5 6-2 4h-2l1-5 5-9h2v-2z" fill="#FEF1F0"/>
<path transform="translate(1293,1019)" d="m0 0 18 1-1 2-9 1-5 3-4 1v-7z" fill="#FEF6F6"/>
<path transform="translate(1124,1037)" d="m0 0 2 1-3 3h-2l-1 2v-2l-4 1h-8v-1l14-3z" fill="#FEE1DF"/>
<path transform="translate(1145,1023)" d="m0 0 2 1-6 5-4 3-3-1 8-6z" fill="#FEE0DE"/>
</svg>
